<?xml version="1.0" encoding="UTF-8" standalone="no"?>
<!DOCTYPE svg PUBLIC "-//W3C//DTD SVG 1.1//EN" "http://www.w3.org/Graphics/SVG/1.1/DTD/svg11.dtd">
<svg xmlns="http://www.w3.org/2000/svg" version="1.1" viewBox="0 0 512 512">
<path fill="#000000" d="
  M 410.44 58.81
  Q 404.05 52.53 394.71 51.64
  Q 389.93 51.19 388.48 50.42
  Q 385.48 48.81 384.48 45.48
  Q 383.59 42.52 384.89 39.61
  Q 386.94 35.00 392.29 34.48
  Q 396.97 34.02 397.05 34.00
  Q 413.58 30.43 417.49 14.03
  Q 417.56 13.71 417.98 8.92
  Q 418.33 4.86 421.29 2.47
  Q 423.99 0.29 427.67 0.65
  Q 432.52 1.12 434.36 5.56
  Q 434.65 6.28 435.50 12.54
  Q 436.69 21.33 443.44 27.56
  Q 450.45 34.03 461.25 34.50
  Q 464.48 34.64 466.74 36.99
  Q 468.69 39.02 469.04 42.12
  Q 469.67 47.76 464.81 50.32
  Q 463.16 51.19 458.85 51.58
  Q 447.55 52.60 440.94 60.94
  Q 435.62 67.65 435.31 76.25
  Q 435.12 81.46 431.58 83.92
  Q 428.16 86.29 424.10 85.14
  Q 420.92 84.24 419.30 81.25
  Q 418.49 79.74 418.13 75.55
  Q 417.27 65.53 410.44 58.81
  Z
  M 426.8480 34.8076
  C 426.75 34.71 426.58 34.71 426.4803 34.8076
  L 418.4476 42.8403
  C 418.35 42.94 418.35 43.11 418.4476 43.2080
  L 426.4520 51.2124
  C 426.55 51.31 426.72 51.31 426.8197 51.2124
  L 434.8524 43.1797
  C 434.95 43.08 434.95 42.91 434.8524 42.8120
  L 426.8480 34.8076
  Z"
/>
<path fill="#000000" d="
  M 256.03 60.06
  C 256.03 78.85 240.79 94.09 222.00 94.09
  C 203.21 94.09 187.97 78.85 187.97 60.06
  C 187.97 41.27 203.21 26.03 222.00 26.03
  C 240.79 26.03 256.03 41.27 256.03 60.06
  Z
  M 239.00 60.07
  C 239.00 50.68 231.39 43.07 222.00 43.07
  C 212.61 43.07 205.00 50.68 205.00 60.07
  C 205.00 69.46 212.61 77.07 222.00 77.07
  C 231.39 77.07 239.00 69.46 239.00 60.07
  Z"
/>
<rect fill="#000000" x="-8.51" y="-8.50" transform="translate(315.76,51.50) rotate(-0.1)" width="17.02" height="17.00" rx="0.60"/>
<path fill="#000000" d="
  M 512.00 260.31
  Q 512.00 265.06 512.00 269.81
  Q 510.00 319.93 483.54 361.39
  Q 478.15 369.83 471.82 377.59
  Q 447.16 407.84 412.69 424.94
  Q 366.12 448.03 313.06 442.61
  C 312.77 442.58 312.50 442.77 312.42 443.05
  Q 299.65 485.78 259.69 503.94
  Q 243.75 511.18 224.69 512.00
  Q 221.94 512.00 219.19 512.00
  Q 186.44 510.48 162.56 490.69
  Q 143.85 475.18 135.00 453.25
  Q 127.47 434.60 128.33 414.46
  Q 128.75 404.55 131.33 394.72
  Q 140.11 361.32 169.63 340.45
  C 170.08 340.13 170.24 339.54 170.01 339.04
  Q 165.33 328.61 161.68 317.52
  C 161.54 317.09 161.08 316.87 160.65 317.01
  Q 130.31 327.59 100.05 322.73
  Q 90.34 321.17 80.68 317.85
  Q 45.36 305.73 23.31 275.94
  Q 2.26 247.49 0.00 210.44
  Q 0.00 205.31 0.00 200.19
  Q 1.26 178.05 8.56 160.56
  Q 27.15 116.02 70.06 96.31
  Q 98.60 83.21 130.34 86.19
  Q 140.32 87.13 150.00 89.71
  Q 187.74 99.80 212.91 130.95
  C 213.20 131.31 213.74 131.36 214.09 131.05
  Q 237.71 110.04 266.93 98.30
  Q 276.12 94.60 285.89 91.96
  Q 330.71 79.84 375.50 90.75
  Q 416.96 100.85 449.65 128.97
  Q 457.16 135.44 464.02 142.87
  Q 509.22 191.86 512.00 260.31
  Z
  M 49.69 279.56
  Q 69.72 298.23 95.78 304.37
  Q 126.55 311.63 156.66 300.25
  C 157.08 300.09 157.33 299.65 157.24 299.21
  Q 153.36 279.11 153.95 258.74
  Q 154.23 248.84 155.73 238.83
  Q 163.79 184.97 200.71 144.30
  C 201.06 143.92 201.08 143.34 200.76 142.94
  Q 189.43 128.45 174.35 118.80
  Q 166.20 113.58 156.50 109.86
  Q 116.63 94.55 77.72 111.82
  Q 68.44 115.95 60.38 121.70
  Q 32.52 141.59 22.12 174.35
  Q 19.09 183.89 18.04 193.88
  Q 14.03 232.17 36.35 264.42
  Q 41.64 272.06 49.69 279.56
  Z
  M 265.51 335.27
  Q 294.31 350.34 307.85 381.07
  Q 317.16 402.20 315.46 425.03
  C 315.43 425.37 315.68 425.67 316.01 425.70
  Q 344.87 428.74 372.49 421.72
  Q 412.54 411.55 442.79 383.54
  Q 469.45 358.85 482.95 325.56
  Q 486.62 316.53 489.21 306.58
  Q 504.30 248.78 479.06 195.12
  Q 474.76 185.98 469.41 177.61
  Q 446.71 142.06 410.31 122.44
  Q 370.00 100.70 324.01 103.13
  Q 284.20 105.23 250.50 125.25
  Q 210.20 149.19 188.68 191.34
  Q 167.80 232.22 171.53 278.25
  Q 173.79 306.16 185.21 331.07
  C 185.40 331.49 185.89 331.68 186.32 331.52
  Q 216.86 319.61 246.94 327.93
  Q 256.58 330.59 265.51 335.27
  Z
  M 298.68 418.19
  C 298.68 375.84 264.34 341.50 221.99 341.50
  C 179.64 341.50 145.30 375.84 145.30 418.19
  C 145.30 460.54 179.64 494.88 221.99 494.88
  C 264.34 494.88 298.68 460.54 298.68 418.19
  Z"
/>
<path fill="#000000" d="
  M 49.44 155.69
  Q 54.37 147.48 60.92 141.44
  Q 85.47 118.80 119.05 119.74
  C 119.44 119.75 119.75 120.07 119.75 120.47
  L 119.75 135.97
  C 119.75 136.41 119.39 136.76 118.95 136.74
  Q 98.36 135.91 80.92 147.16
  Q 71.34 153.33 65.13 162.86
  Q 58.54 172.94 55.38 184.58
  Q 50.54 202.34 51.48 220.32
  C 51.51 220.90 51.08 221.39 50.50 221.44
  L 35.14 222.78
  C 34.70 222.82 34.32 222.49 34.30 222.05
  Q 33.57 206.33 36.36 190.48
  Q 39.60 172.07 49.44 155.69
  Z"
/>
<path fill="#000000" d="
  M 341.44 120.17
  C 341.44 119.93 341.64 119.74 341.87 119.76
  Q 370.46 121.59 396.41 133.87
  Q 434.68 152.00 455.44 187.31
  Q 473.19 217.52 477.50 254.32
  C 477.54 254.61 477.35 254.88 477.07 254.92
  L 461.49 257.11
  C 461.12 257.16 460.77 256.88 460.72 256.48
  Q 457.22 229.12 445.02 204.14
  Q 426.34 165.89 387.67 148.09
  Q 367.00 138.57 342.44 136.88
  C 341.91 136.84 341.50 136.39 341.49 135.85
  L 341.44 120.17
  Z"
/>
<path fill="#000000" d="
  M 300.84 156.85
  Q 303.65 153.64 307.98 154.16
  Q 312.97 154.75 314.80 158.54
  Q 315.21 159.40 316.00 165.59
  Q 317.07 173.96 322.56 179.69
  Q 329.94 187.38 341.75 188.00
  Q 346.11 188.23 348.33 191.58
  Q 350.29 194.55 349.59 198.23
  Q 348.83 202.24 345.22 203.98
  Q 343.95 204.60 338.62 205.22
  Q 326.48 206.63 319.81 216.81
  Q 316.56 221.77 315.91 228.22
  Q 315.41 233.16 314.69 234.60
  Q 312.74 238.46 308.37 238.88
  Q 304.73 239.23 301.98 237.25
  Q 298.84 234.99 298.75 230.75
  Q 298.48 218.61 290.06 211.44
  Q 283.08 205.49 272.75 205.00
  Q 268.79 204.81 266.55 201.86
  Q 264.57 199.27 264.82 195.74
  Q 265.16 191.11 269.25 189.05
  Q 270.76 188.29 275.43 187.87
  Q 282.49 187.24 287.69 183.44
  Q 298.34 175.64 298.73 162.25
  Q 298.82 159.14 300.84 156.85
  Z
  M 306.90 188.37
  Q 302.94 192.95 299.03 196.08
  C 298.77 196.29 298.77 196.69 299.03 196.94
  L 307.00 204.70
  C 307.26 204.96 307.69 204.94 307.89 204.66
  Q 310.95 200.33 315.26 197.28
  C 315.73 196.94 315.75 196.26 315.30 195.90
  Q 311.34 192.78 307.88 188.39
  C 307.63 188.07 307.16 188.07 306.90 188.37
  Z"
/>
<rect fill="#000000" x="-8.52" y="-8.62" transform="translate(111.22,230.62) rotate(0.1)" width="17.04" height="17.24" rx="0.68"/>
<path fill="#000000" d="
  M 393.44 289.06
  Q 387.32 282.75 377.71 281.89
  Q 373.03 281.47 371.50 280.67
  Q 367.88 278.80 367.24 274.84
  Q 366.57 270.68 369.14 267.67
  Q 371.33 265.12 375.00 264.78
  Q 378.89 264.42 378.96 264.40
  Q 399.38 260.31 401.25 238.25
  Q 401.60 234.15 404.78 232.12
  Q 407.60 230.32 411.11 230.87
  Q 415.02 231.49 416.91 234.95
  Q 417.75 236.47 418.12 240.78
  Q 418.79 248.43 423.06 254.19
  Q 430.03 263.59 441.86 264.67
  Q 446.30 265.08 447.81 265.89
  Q 450.98 267.58 451.79 270.99
  Q 452.81 275.25 450.21 278.58
  Q 448.04 281.36 444.11 281.72
  Q 440.01 282.10 439.91 282.12
  Q 419.76 286.21 418.00 307.25
  Q 417.61 311.94 414.51 314.22
  Q 411.62 316.33 407.64 315.49
  Q 401.47 314.19 401.00 306.75
  Q 400.33 296.18 393.44 289.06
  Z
  M 409.7938 265.0293
  C 409.69 264.93 409.53 264.93 409.4262 265.0293
  L 401.3793 273.0762
  C 401.28 273.18 401.28 273.34 401.3793 273.4438
  L 409.4262 281.4907
  C 409.53 281.59 409.69 281.59 409.7938 281.4907
  L 417.8407 273.4438
  C 417.94 273.34 417.94 273.18 417.8407 273.0762
  L 409.7938 265.0293
  Z"
/>
<rect fill="#000000" x="-8.52" y="-8.50" transform="translate(111.23,358.50) rotate(0.1)" width="17.04" height="17.00" rx="0.51"/>
<rect fill="#000000" x="-8.50" y="-8.50" transform="translate(349.99,367.00) rotate(-0.1)" width="17.00" height="17.00" rx="0.53"/>
<path fill="#000000" d="
  M 28.25 423.76
  Q 23.30 418.42 28.69 411.94
  Q 30.30 410.00 33.61 409.77
  Q 36.32 409.59 36.37 409.58
  Q 56.07 406.83 59.67 387.53
  Q 59.68 387.46 59.99 383.45
  Q 60.26 379.78 62.81 377.81
  Q 68.59 373.35 74.06 377.69
  Q 75.80 379.06 76.55 381.38
  Q 76.81 382.20 77.14 385.67
  Q 78.69 401.86 94.06 408.19
  Q 96.73 409.29 100.69 409.61
  Q 105.09 409.98 106.63 410.77
  Q 109.79 412.41 110.68 415.79
  Q 111.69 419.65 109.62 422.95
  Q 107.39 426.51 102.50 426.75
  Q 95.40 427.10 90.14 430.20
  Q 77.66 437.57 77.00 452.50
  Q 76.87 455.44 75.10 457.63
  Q 73.48 459.63 70.74 460.43
  Q 65.27 462.04 61.56 457.19
  Q 60.20 455.40 60.01 452.70
  Q 59.77 449.36 59.77 449.32
  Q 57.23 433.59 42.74 428.21
  Q 41.09 427.60 36.62 427.07
  Q 34.31 426.80 32.11 426.11
  Q 29.73 425.36 28.25 423.76
  Z
  M 60.41 418.65
  Q 64.98 422.53 68.08 426.46
  C 68.34 426.80 68.86 426.79 69.11 426.44
  Q 72.17 422.18 76.48 418.97
  C 76.89 418.67 76.91 418.06 76.53 417.68
  L 68.82 409.91
  C 68.63 409.71 68.32 409.72 68.16 409.92
  Q 64.74 414.12 60.42 417.63
  C 60.10 417.89 60.09 418.39 60.41 418.65
  Z"
/>
<path fill="#000000" d="
  M 503.32 443.78
  C 503.32 457.87 491.90 469.29 477.81 469.29
  C 463.72 469.29 452.30 457.87 452.30 443.78
  C 452.30 429.69 463.72 418.27 477.81 418.27
  C 491.90 418.27 503.32 429.69 503.32 443.78
  Z
  M 486.26 443.77
  C 486.26 439.10 482.48 435.32 477.81 435.32
  C 473.14 435.32 469.36 439.10 469.36 443.77
  C 469.36 448.44 473.14 452.22 477.81 452.22
  C 482.48 452.22 486.26 448.44 486.26 443.77
  Z"
/>
<rect fill="#000000" x="-8.60" y="-8.60" transform="translate(25.90,477.90) rotate(-0.1)" width="17.20" height="17.20" rx="0.99"/>
<rect fill="#000000" x="-8.50" y="-8.62" transform="translate(401.01,477.88) rotate(-0.1)" width="17.00" height="17.24" rx="0.91"/>
</svg>
