<?xml version="1.0" encoding="UTF-8" standalone="no"?>
<!DOCTYPE svg PUBLIC "-//W3C//DTD SVG 1.1//EN" "http://www.w3.org/Graphics/SVG/1.1/DTD/svg11.dtd">
<svg xmlns="http://www.w3.org/2000/svg" version="1.1" viewBox="0 0 512 512">
<path fill="#000000" d="
  M 255.31 0.00
  Q 256.06 0.00 256.81 0.00
  Q 259.50 0.58 260.44 1.06
  Q 301.21 22.12 341.84 43.45
  Q 345.29 45.26 346.60 46.77
  Q 348.73 49.22 348.92 52.39
  Q 349.15 56.47 346.22 59.87
  Q 341.34 65.53 333.01 61.23
  Q 294.79 41.50 257.48 21.97
  C 256.63 21.53 255.62 21.53 254.77 21.97
  L 32.74 137.42
  Q 31.74 137.94 32.74 138.46
  L 255.21 254.21
  C 255.72 254.47 256.33 254.47 256.84 254.21
  L 479.39 138.38
  Q 480.18 137.97 479.39 137.56
  Q 447.68 120.89 415.50 104.25
  Q 409.62 101.21 409.09 95.84
  Q 408.61 90.82 412.41 87.20
  Q 417.25 82.60 424.75 86.50
  Q 462.89 106.35 501.01 126.22
  Q 507.35 129.52 507.58 129.69
  Q 511.01 132.15 511.75 136.25
  Q 512.51 140.46 510.03 143.69
  Q 508.56 145.59 504.24 147.87
  Q 458.08 172.13 410.88 196.54
  Q 410.06 196.97 410.88 197.40
  Q 457.40 221.51 503.09 245.37
  Q 508.15 248.02 509.62 249.64
  Q 512.62 252.97 511.75 257.75
  Q 510.79 262.97 505.45 265.49
  Q 503.18 266.56 503.11 266.60
  Q 456.86 290.75 410.95 314.61
  Q 410.17 315.02 410.95 315.43
  Q 457.53 339.74 503.49 363.46
  Q 507.50 365.53 508.44 366.56
  Q 514.72 373.50 509.53 380.27
  Q 508.41 381.73 506.61 382.80
  Q 505.20 383.64 503.19 384.69
  Q 382.08 447.71 260.94 510.69
  Q 259.53 511.42 256.94 512.00
  Q 256.06 512.00 255.19 512.00
  Q 252.51 511.42 250.08 510.16
  Q 129.38 447.38 8.72 384.54
  Q 8.62 384.49 6.38 383.44
  Q 1.14 380.99 0.25 375.75
  Q -0.55 371.05 2.33 367.77
  Q 3.79 366.10 8.74 363.53
  Q 55.12 339.44 101.04 315.49
  Q 101.96 315.01 101.04 314.53
  Q 52.62 289.41 4.81 264.44
  Q 0.87 262.38 0.40 256.99
  Q -0.18 250.37 5.55 247.35
  Q 53.27 222.19 100.98 197.55
  Q 102.12 196.95 100.97 196.37
  Q 53.45 171.93 6.42 147.07
  Q 3.38 145.46 1.99 143.36
  Q -1.78 137.67 1.86 132.59
  Q 3.70 130.02 9.14 127.19
  Q 128.04 65.29 247.00 3.50
  Q 252.55 0.62 255.31 0.00
  Z
  M 162.38 228.49
  L 123.95 208.48
  C 123.67 208.34 123.34 208.34 123.06 208.48
  L 32.79 255.49
  Q 31.76 256.02 32.79 256.56
  L 70.67 276.23
  C 71.18 276.49 71.78 276.49 72.28 276.23
  L 162.38 229.40
  Q 163.25 228.94 162.38 228.49
  Z
  M 155.53 320.35
  L 193.99 340.34
  C 194.27 340.49 194.62 340.49 194.91 340.33
  L 417.23 224.28
  Q 418.23 223.75 417.23 223.22
  L 388.96 208.50
  C 388.67 208.36 388.33 208.36 388.04 208.51
  Q 327.54 239.91 267.40 271.21
  Q 259.99 275.06 258.44 275.35
  Q 253.59 276.26 248.14 272.98
  Q 246.49 271.99 244.79 272.88
  L 155.53 319.27
  Q 154.49 319.81 155.53 320.35
  Z
  M 217.00 352.33
  L 255.35 372.33
  C 255.76 372.54 256.26 372.54 256.67 372.33
  L 479.32 256.56
  Q 480.39 256.00 479.32 255.44
  L 441.06 235.52
  C 440.33 235.14 439.46 235.14 438.74 235.52
  L 217.00 351.29
  Q 215.99 351.81 217.00 352.33
  Z
  M 215.31 255.95
  Q 200.84 248.39 185.58 240.56
  C 185.13 240.33 184.61 240.34 184.17 240.57
  Q 140.72 263.20 97.45 285.64
  Q 97.40 285.67 96.10 286.46
  Q 95.13 287.05 93.98 287.25
  Q 92.37 287.53 93.82 288.29
  L 132.39 308.29
  C 132.71 308.46 133.09 308.46 133.41 308.29
  L 223.45 261.43
  Q 224.72 260.77 223.44 260.13
  Q 219.42 258.10 215.31 255.95
  Z
  M 479.41 373.62
  L 389.49 326.87
  C 388.80 326.51 387.98 326.52 387.28 326.88
  Q 327.20 358.23 266.36 389.79
  Q 260.51 392.83 259.99 393.01
  Q 256.29 394.33 252.64 393.27
  Q 252.18 393.13 243.74 388.76
  Q 184.08 357.82 124.36 326.68
  C 123.88 326.43 123.30 326.43 122.82 326.68
  L 32.80 373.49
  Q 31.69 374.06 32.79 374.63
  L 255.09 490.27
  C 255.68 490.58 256.38 490.58 256.97 490.27
  L 479.41 374.52
  Q 480.28 374.07 479.41 373.62
  Z"
/>
<circle fill="#000000" cx="378.92" cy="73.95" r="9.91"/>
</svg>
