<?xml version="1.0" encoding="UTF-8" standalone="no"?>
<!DOCTYPE svg PUBLIC "-//W3C//DTD SVG 1.1//EN" "http://www.w3.org/Graphics/SVG/1.1/DTD/svg11.dtd">
<svg xmlns="http://www.w3.org/2000/svg" version="1.1" viewBox="0 0 512 512">
<path fill="#000000" d="
  M 292.06 0.00
  Q 293.56 0.00 295.06 0.00
  Q 303.64 1.31 309.23 7.51
  Q 312.51 11.14 312.57 11.21
  Q 322.16 20.85 331.55 30.70
  Q 333.79 33.05 336.36 32.41
  Q 337.84 32.04 340.06 29.80
  Q 358.27 11.44 361.56 7.81
  Q 367.60 1.16 375.81 0.00
  Q 377.44 0.00 379.06 0.00
  Q 388.05 1.20 392.96 7.66
  Q 395.27 10.71 397.21 17.90
  Q 403.55 41.33 404.81 47.44
  Q 405.70 51.72 408.93 52.28
  Q 410.43 52.55 414.37 51.41
  Q 428.16 47.45 441.99 43.63
  Q 448.41 41.85 452.19 42.23
  Q 460.19 43.02 465.26 49.18
  Q 468.30 52.87 469.35 57.20
  Q 470.47 61.81 469.25 66.50
  Q 466.27 77.97 460.19 98.87
  Q 459.30 101.95 459.87 103.69
  Q 460.80 106.51 464.07 107.10
  Q 466.79 107.59 466.89 107.62
  Q 481.67 111.54 496.50 115.25
  Q 510.67 118.80 512.00 134.31
  Q 512.00 134.81 512.00 135.31
  Q 511.15 143.99 504.44 150.19
  Q 499.85 154.42 482.09 171.93
  Q 479.94 174.05 479.55 175.52
  Q 478.86 178.06 481.06 180.19
  Q 498.35 196.87 507.44 206.06
  Q 511.58 210.25 512.00 218.06
  Q 512.00 218.69 512.00 219.31
  Q 510.97 230.41 501.44 235.94
  Q 498.92 237.40 493.37 238.70
  Q 485.45 240.57 485.29 240.61
  Q 474.66 243.37 463.99 245.94
  Q 459.93 246.92 459.58 250.25
  Q 459.44 251.65 460.57 255.54
  Q 468.30 282.07 469.44 287.06
  Q 470.26 290.67 469.59 294.59
  Q 468.99 298.12 466.89 301.43
  Q 458.62 314.46 441.98 309.56
  Q 427.31 305.25 412.58 301.15
  Q 409.52 300.30 407.89 300.99
  Q 405.64 301.94 405.06 304.70
  Q 404.77 306.09 404.75 306.15
  Q 401.09 320.19 397.50 334.25
  Q 396.38 338.65 395.03 341.74
  Q 393.45 345.36 390.49 348.03
  Q 383.11 354.70 373.00 352.50
  Q 366.94 351.18 362.01 345.80
  Q 359.84 343.43 359.80 343.38
  Q 349.54 332.80 339.18 322.31
  Q 335.51 318.60 331.83 322.33
  Q 322.12 332.18 312.37 341.99
  Q 312.32 342.05 308.93 345.80
  Q 303.35 351.98 295.60 352.72
  Q 287.53 353.50 281.29 348.68
  Q 275.57 344.26 273.86 336.48
  Q 273.01 332.61 273.00 332.55
  Q 269.48 318.93 265.96 305.32
  Q 265.26 302.65 264.18 301.67
  Q 262.44 300.10 259.75 300.75
  Q 255.44 301.79 239.23 306.58
  Q 237.19 307.19 235.68 308.69
  Q 178.31 366.06 120.94 423.44
  Q 119.45 424.93 118.17 426.01
  Q 116.63 427.32 114.88 427.73
  Q 108.80 429.13 106.36 423.75
  Q 105.23 421.24 105.81 419.02
  Q 106.41 416.71 108.44 414.69
  Q 160.80 362.42 212.87 310.13
  C 213.09 309.91 213.03 309.53 212.75 309.39
  Q 206.07 305.93 202.70 299.42
  C 202.53 299.10 202.09 299.03 201.83 299.29
  Q 122.04 378.65 42.33 458.54
  Q 42.27 458.61 41.09 459.89
  Q 38.21 463.03 34.42 462.59
  Q 31.88 462.29 28.91 459.49
  Q 26.18 456.92 23.27 453.86
  Q 22.33 452.87 22.16 454.23
  L 17.08 494.26
  C 17.03 494.69 17.39 495.05 17.81 494.99
  L 58.13 489.84
  Q 59.12 489.71 58.40 489.02
  Q 55.22 485.97 52.31 482.87
  Q 49.79 480.17 49.56 477.83
  Q 49.18 473.94 52.56 470.56
  Q 67.50 455.62 82.40 440.65
  Q 85.57 437.47 89.29 438.13
  Q 92.68 438.72 94.63 441.85
  Q 96.68 445.14 94.89 448.69
  Q 94.07 450.30 90.80 453.59
  Q 79.36 465.09 67.98 476.28
  C 67.64 476.61 67.64 477.16 67.99 477.49
  Q 70.89 480.23 73.63 483.12
  Q 76.73 486.38 77.13 490.53
  Q 77.51 494.46 75.38 498.03
  Q 72.98 502.06 68.45 503.41
  Q 67.80 503.60 60.15 504.62
  Q 39.08 507.44 17.98 509.99
  Q 12.54 510.65 9.60 509.62
  Q 4.19 507.74 2.34 502.31
  Q 1.35 499.41 2.02 494.13
  Q 5.15 469.35 8.31 444.56
  Q 8.74 441.16 11.45 438.56
  Q 13.82 436.30 17.11 435.35
  Q 23.14 433.62 28.05 437.74
  Q 28.18 437.85 31.36 440.84
  Q 33.06 442.44 34.57 444.06
  C 34.90 444.41 35.45 444.42 35.80 444.08
  L 204.15 275.73
  Q 204.69 275.19 204.90 274.45
  Q 207.53 265.41 209.84 257.20
  Q 211.37 251.79 211.39 251.16
  Q 211.57 247.08 206.44 245.81
  Q 192.19 242.30 177.97 238.65
  Q 170.22 236.66 167.15 234.52
  Q 161.98 230.92 160.00 224.75
  Q 156.33 213.35 165.10 204.60
  Q 177.24 192.49 189.44 180.44
  Q 193.53 176.39 189.51 172.49
  Q 177.65 160.98 165.81 149.44
  Q 160.05 143.82 159.22 136.78
  Q 158.40 129.87 162.25 123.80
  Q 165.54 118.59 171.39 116.21
  Q 172.01 115.96 182.52 113.24
  Q 193.88 110.30 205.25 107.39
  Q 208.85 106.47 209.97 105.45
  Q 212.16 103.45 211.05 99.73
  Q 206.45 84.20 202.19 68.56
  Q 199.91 60.22 202.86 53.64
  Q 205.87 46.91 212.67 43.87
  Q 219.36 40.88 227.75 43.25
  Q 243.54 47.71 259.31 52.19
  Q 264.44 53.64 265.82 48.31
  Q 269.95 32.29 273.96 16.24
  Q 277.49 2.08 292.06 0.00
  Z
  M 471.17 191.33
  Q 467.90 188.15 467.06 186.44
  Q 460.25 172.44 471.44 161.44
  Q 483.01 150.06 494.62 138.72
  Q 496.28 137.10 496.68 135.74
  Q 497.32 133.57 496.08 131.89
  Q 495.02 130.46 491.88 129.61
  Q 472.36 124.36 465.81 122.94
  Q 458.77 121.41 456.31 120.19
  Q 445.58 114.86 444.64 103.98
  Q 444.31 100.07 446.23 93.20
  Q 450.12 79.31 454.11 65.44
  Q 454.90 62.71 454.80 61.35
  Q 454.61 58.64 452.36 57.61
  Q 450.56 56.77 447.14 57.73
  Q 433.79 61.47 420.43 65.21
  Q 420.33 65.24 416.59 66.38
  Q 411.91 67.81 409.00 67.50
  Q 394.13 65.92 390.42 51.57
  Q 386.51 36.49 382.76 21.38
  Q 382.00 18.30 381.05 16.97
  Q 379.01 14.09 376.01 15.42
  Q 374.53 16.07 371.50 19.17
  Q 360.45 30.41 349.35 41.60
  Q 343.96 47.03 337.00 47.50
  Q 330.00 47.97 324.60 44.31
  Q 323.15 43.33 315.74 35.83
  Q 308.08 28.08 300.52 20.24
  Q 297.02 16.60 295.54 15.74
  Q 290.51 12.83 288.44 20.44
  Q 286.98 25.80 282.32 44.40
  Q 279.54 55.49 277.24 58.97
  Q 272.35 66.35 262.85 67.21
  Q 259.09 67.55 253.31 65.98
  Q 239.64 62.27 226.03 58.32
  Q 222.33 57.24 220.75 57.23
  Q 216.46 57.20 216.20 61.25
  Q 216.09 63.07 217.41 67.64
  Q 220.52 78.34 223.49 89.08
  Q 226.33 99.37 226.37 102.04
  Q 226.47 109.15 221.32 115.09
  Q 217.07 119.99 211.00 121.50
  Q 191.39 126.39 179.37 129.56
  Q 175.98 130.45 174.76 132.05
  Q 172.58 134.91 175.94 138.31
  Q 179.62 142.03 194.50 156.49
  Q 201.73 163.52 202.49 164.52
  Q 206.18 169.41 206.50 175.50
  Q 206.85 182.23 203.13 187.60
  Q 202.08 189.12 194.73 196.28
  Q 185.45 205.34 176.21 214.44
  Q 174.49 216.13 174.15 217.67
  Q 173.62 220.13 175.32 221.70
  Q 176.45 222.73 179.97 223.63
  Q 190.84 226.42 201.70 229.23
  Q 214.27 232.48 217.01 234.10
  Q 224.70 238.65 226.27 248.66
  Q 226.54 250.37 226.33 252.34
  Q 226.06 254.90 225.75 256.00
  Q 221.12 272.33 216.52 288.66
  Q 215.87 290.98 216.21 292.39
  Q 216.76 294.67 218.78 295.51
  Q 220.47 296.22 223.69 295.32
  Q 234.77 292.22 245.84 289.11
  Q 257.90 285.72 259.61 285.61
  Q 267.23 285.11 273.81 290.47
  Q 278.66 294.42 280.21 300.51
  Q 284.33 316.78 288.56 333.02
  Q 289.20 335.47 290.19 336.54
  Q 291.90 338.38 294.22 337.85
  Q 295.93 337.46 298.36 334.96
  Q 309.59 323.39 320.79 311.79
  Q 325.21 307.21 330.75 306.00
  Q 341.99 303.54 350.09 311.91
  Q 361.96 324.17 373.94 336.31
  Q 377.10 339.52 380.02 337.17
  Q 381.35 336.11 382.13 333.75
  Q 382.79 331.78 383.27 329.76
  Q 386.42 316.49 390.02 303.34
  Q 391.91 296.44 394.30 293.23
  Q 399.43 286.35 408.06 285.72
  Q 412.19 285.42 420.21 287.70
  Q 433.98 291.61 447.77 295.45
  Q 450.21 296.13 451.76 295.62
  Q 454.24 294.81 454.73 292.40
  Q 455.06 290.81 454.01 287.19
  Q 451.12 277.21 448.30 267.21
  Q 444.57 253.98 444.55 250.63
  Q 444.50 240.81 453.31 234.48
  Q 454.98 233.28 457.00 232.54
  Q 458.97 231.81 461.01 231.30
  Q 475.98 227.59 490.90 223.72
  Q 493.81 222.96 494.84 222.28
  Q 497.13 220.78 496.78 218.15
  Q 496.51 216.13 493.98 213.64
  Q 482.60 202.46 471.17 191.33
  Z"
/>
<path fill="#000000" d="
  M 264.04 257.19
  Q 227.54 224.44 227.50 175.50
  Q 227.49 159.85 232.41 144.21
  Q 235.38 134.78 240.19 125.82
  Q 259.03 90.70 296.56 75.81
  Q 316.48 67.91 338.47 68.58
  Q 348.32 68.88 358.28 71.05
  Q 396.41 79.34 420.44 110.06
  Q 445.37 141.95 443.18 182.55
  Q 442.63 192.67 440.23 202.30
  Q 432.63 232.79 410.06 254.44
  Q 402.81 261.41 394.46 266.91
  Q 375.20 279.60 353.25 283.00
  Q 350.18 283.48 347.83 281.45
  Q 345.79 279.70 345.22 276.92
  Q 344.16 271.84 349.31 268.81
  Q 350.33 268.22 353.87 267.57
  Q 357.02 267.00 358.47 266.62
  Q 385.32 259.67 403.94 239.44
  Q 420.57 221.35 426.19 196.94
  Q 431.02 175.94 425.79 154.65
  Q 423.44 145.08 418.96 135.89
  Q 402.61 102.38 367.19 89.06
  Q 347.17 81.54 324.00 84.25
  Q 296.21 87.50 274.19 106.69
  Q 253.64 124.59 246.10 150.84
  Q 243.36 160.40 242.69 170.49
  Q 240.70 200.42 256.31 225.44
  Q 277.15 258.83 316.58 267.64
  Q 320.58 268.53 322.09 269.71
  Q 324.90 271.89 324.72 275.56
  Q 324.56 278.72 322.52 280.85
  Q 320.15 283.33 316.50 282.75
  Q 287.30 278.07 264.04 257.19
  Z"
/>
<path fill="#000000" d="
  M 271.46 142.45
  Q 275.33 136.91 281.19 139.81
  Q 285.18 141.79 285.20 147.00
  Q 285.24 164.11 285.25 181.21
  Q 285.25 188.98 285.42 189.77
  Q 286.38 194.36 290.98 197.04
  Q 297.34 200.73 304.50 197.75
  Q 308.67 196.01 310.66 192.61
  Q 312.00 190.31 312.00 185.62
  Q 312.00 166.44 312.00 147.25
  Q 312.00 142.85 314.98 140.55
  Q 317.82 138.37 321.38 139.18
  Q 324.37 139.87 325.92 142.57
  Q 326.93 144.32 326.95 147.75
  Q 327.03 163.19 327.01 178.64
  Q 327.00 190.71 326.61 192.83
  Q 325.22 200.47 319.44 205.69
  Q 308.84 215.24 295.25 214.00
  Q 286.78 213.23 279.42 207.09
  Q 270.20 199.40 270.22 187.25
  Q 270.25 167.25 270.25 147.25
  Q 270.25 144.18 271.46 142.45
  Z"
/>
<path fill="#000000" d="
  M 371.98 185.46
  Q 372.22 186.12 372.43 185.45
  Q 378.58 166.42 385.00 147.50
  Q 386.33 143.59 387.42 142.13
  Q 389.66 139.14 392.88 139.06
  Q 395.87 138.98 398.21 141.02
  Q 400.31 142.85 400.58 145.73
  Q 400.75 147.50 399.70 150.65
  Q 390.72 177.76 381.71 204.85
  Q 380.01 209.98 378.39 211.69
  Q 375.32 214.94 370.31 213.94
  Q 366.48 213.17 364.55 209.80
  Q 364.13 209.06 362.22 203.51
  Q 353.57 178.35 344.74 153.25
  Q 344.05 151.28 343.51 149.26
  Q 342.84 146.82 343.02 145.17
  Q 343.47 141.04 347.31 139.56
  Q 352.45 137.59 355.50 140.94
  Q 356.88 142.45 358.65 147.55
  Q 365.27 166.63 371.98 185.46
  Z"
/>
<path fill="#000000" d="
  M 0.00 361.69
  Q 0.00 360.81 0.00 359.94
  Q 5.45 318.84 6.50 309.50
  Q 7.29 302.50 12.56 299.06
  Q 16.74 296.34 21.55 297.67
  Q 24.44 298.47 27.73 301.42
  Q 30.35 303.76 32.93 306.60
  C 33.28 306.99 33.88 307.00 34.24 306.63
  Q 59.93 280.94 85.46 255.41
  Q 93.84 247.03 96.04 245.65
  Q 102.54 241.58 110.75 242.50
  Q 116.93 243.19 121.81 247.00
  Q 126.26 250.47 128.74 256.14
  Q 132.90 265.64 128.60 274.58
  Q 126.55 278.82 118.55 286.83
  Q 92.76 312.62 66.54 338.83
  C 66.22 339.15 66.21 339.66 66.52 339.99
  Q 68.71 342.33 70.76 344.40
  Q 73.68 347.35 74.56 349.15
  Q 76.65 353.38 75.19 357.94
  Q 73.75 362.43 69.81 364.71
  Q 67.47 366.06 61.91 366.77
  Q 38.58 369.74 15.25 372.75
  Q 2.55 374.39 0.00 361.69
  Z
  M 29.44 323.75
  Q 27.48 322.44 25.81 320.44
  Q 24.10 318.38 21.40 316.31
  Q 20.99 315.99 20.93 316.49
  L 15.74 357.06
  C 15.70 357.31 15.93 357.53 16.19 357.50
  L 56.31 352.37
  Q 57.70 352.19 56.67 351.24
  Q 53.01 347.90 50.11 344.55
  Q 48.24 342.38 47.98 340.34
  Q 47.64 337.66 48.97 335.45
  Q 49.40 334.72 53.57 330.55
  Q 83.25 300.87 112.95 271.20
  Q 116.29 267.85 115.58 263.97
  Q 114.90 260.27 111.69 258.36
  Q 109.04 256.78 105.87 257.71
  Q 103.82 258.31 101.33 260.80
  Q 71.41 290.71 41.49 320.63
  Q 41.44 320.69 40.19 322.05
  Q 37.60 324.87 33.99 325.08
  Q 31.61 325.21 29.44 323.75
  Z"
/>
<path fill="#000000" d="
  M 152.44 512.00
  Q 151.31 512.00 150.19 512.00
  Q 142.38 510.66 139.90 504.09
  Q 138.89 501.42 139.42 496.82
  Q 143.67 459.59 146.25 444.50
  Q 146.56 442.70 148.47 440.61
  Q 149.97 438.97 151.97 437.93
  Q 160.32 433.57 167.36 440.90
  Q 169.38 443.00 172.02 445.64
  C 172.32 445.94 172.80 445.94 173.10 445.64
  Q 199.45 419.50 225.12 393.77
  Q 232.99 385.88 235.46 384.39
  Q 241.82 380.55 249.75 381.50
  Q 256.31 382.29 261.27 386.39
  Q 265.93 390.26 268.21 396.21
  Q 272.26 406.81 265.44 417.44
  Q 263.77 420.04 253.84 429.84
  Q 229.56 453.81 205.43 477.95
  C 205.12 478.26 205.13 478.77 205.45 479.07
  Q 208.01 481.44 210.42 484.08
  Q 213.38 487.33 214.21 489.96
  Q 215.84 495.11 212.69 499.94
  Q 210.17 503.79 205.85 505.01
  Q 205.63 505.07 197.76 506.09
  Q 175.10 509.04 152.44 512.00
  Z
  M 171.80 464.19
  Q 169.68 464.08 168.34 462.77
  L 160.61 455.20
  Q 159.82 454.43 159.69 455.50
  L 154.56 495.77
  C 154.51 496.15 154.83 496.47 155.20 496.42
  L 195.31 491.33
  Q 196.62 491.16 195.66 490.25
  Q 192.63 487.37 190.09 484.67
  Q 187.14 481.55 186.87 478.96
  Q 186.58 476.24 188.23 473.98
  Q 188.47 473.66 191.70 470.43
  Q 221.63 440.49 251.56 410.56
  Q 253.71 408.42 254.38 405.91
  Q 255.04 403.47 253.82 400.84
  Q 251.36 395.55 245.39 396.68
  Q 243.28 397.08 241.25 398.90
  Q 239.45 400.52 237.73 402.23
  Q 207.69 432.19 177.53 462.03
  Q 175.17 464.37 171.80 464.19
  Z"
/>
</svg>
